# xmcd CD database file
#
# Track frame offsets:
#	150
#	18899
#	41548
#	59847
#	79496
#	95995
#
# Disc length: 1497 seconds
#
# Revision: 0
# Processed by: cddbd v1.5.1PL0 Copyright (c) Steve Scherf et al.
# Submitted via: CDex 1.51
#
DISCID=5005d706
DTITLE=Strange Blue - Blue Sky
DYEAR=2003
DGENRE=Jazz
TTITLE0=Papa's Got A Brandnew Bag
TTITLE1=The Ghetto
TTITLE2=Come Together
TTITLE3=To Know You Is To Love You
TTITLE4=The Sensitive Kind
TTITLE5=Fever
EXTD=YEAR: 2003
EXTT0=
EXTT1=
EXTT2=
EXTT3=
EXTT4=
EXTT5=
PLAYORDER=
